<?xml version="1.0" standalone="no"?>
<!DOCTYPE svg PUBLIC "-//W3C//DTD SVG 20010904//EN"
 "http://www.w3.org/TR/2001/REC-SVG-20010904/DTD/svg10.dtd">
<svg version="1.0" xmlns="http://www.w3.org/2000/svg"
 width="600.000000pt" height="139.000000pt" viewBox="0 0 600.000000 139.000000"
 preserveAspectRatio="xMidYMid meet">
<g transform="translate(0.000000,139.000000) scale(0.100000,-0.100000)"
fill="#FFFFFF" stroke="none">
<path d="M1147 1164 l2 -187 41 -18 c23 -10 53 -28 67 -39 31 -24 58 -27 49
-5 -3 9 -6 58 -7 110 -1 52 -5 98 -10 101 -7 4 -14 -87 -12 -162 1 -19 -86 15
-98 38 -12 23 -2 223 13 252 7 13 7 16 -1 12 -6 -4 -11 -1 -11 7 0 24 13 28
32 10 17 -15 18 -15 18 0 0 10 -4 17 -10 17 -5 0 -10 4 -10 10 0 10 876 15
904 4 9 -3 14 -10 11 -14 -3 -5 -195 -9 -427 -9 -388 -1 -478 -6 -402 -25 14
-4 227 -6 473 -5 245 0 452 -1 460 -3 7 -1 15 2 18 9 2 6 -13 17 -34 24 -21 6
-54 23 -73 35 l-35 24 -480 0 -480 0 2 -186z"/>
<path d="M1940 1101 c-45 -12 -7 -17 80 -11 47 4 83 8 80 10 -11 6 -136 7
-160 1z"/>
<path d="M2214 1095 c3 -8 1 -15 -4 -15 -6 0 -10 -4 -10 -10 0 -5 8 -10 19
-10 13 0 19 7 19 25 0 15 -6 25 -15 25 -9 0 -13 -6 -9 -15z"/>
<path d="M1435 1080 c-11 -18 22 -22 165 -18 l140 3 12 -35 c7 -19 13 -40 13
-46 0 -6 5 -18 11 -25 6 -8 13 -21 16 -29 2 -7 7 -10 10 -5 9 16 -28 114 -52
140 -21 23 -28 24 -166 24 -86 1 -145 -3 -149 -9z"/>
<path d="M1414 1034 c4 -21 10 -57 13 -79 4 -31 11 -43 31 -53 31 -15 72 -16
72 -2 0 6 -12 10 -27 10 -26 0 -30 6 -52 75 -26 84 -49 113 -37 49z"/>
<path d="M1887 1060 c-28 -73 -40 -146 -22 -128 9 9 36 121 31 132 -2 6 -6 5
-9 -4z"/>
<path d="M1979 1005 c0 0 -6 -20 -12 -45 -11 -42 -15 -45 -50 -50 -21 -3 -37
-9 -36 -15 0 -5 4 -9 8 -9 3 1 19 4 34 8 24 6 28 4 25 -11 -3 -16 -15 -18
-108 -18 -87 0 -105 3 -105 15 0 10 8 14 28 12 15 -1 27 2 27 8 0 5 -15 10
-33 10 -30 0 -34 4 -43 38 l-9 37 -94 3 c-86 3 -93 1 -87 -15 4 -10 10 -30 13
-46 3 -15 10 -30 14 -33 5 -3 9 -12 9 -20 0 -12 -25 -14 -155 -12 -143 3 -153
2 -134 -13 17 -13 48 -15 160 -15 l139 1 26 -85 c15 -47 39 -125 55 -174 16
-49 32 -104 35 -123 l6 -33 -128 -2 c-177 -2 -243 0 -271 7 -30 7 -30 -8 2
-25 19 -10 69 -12 219 -8 l194 6 17 -59 c9 -33 19 -59 23 -59 15 0 188 42 202
49 8 5 17 21 20 37 l5 29 138 -3 c77 -1 137 2 137 7 0 5 -21 16 -47 25 -36 11
-59 13 -93 6 -49 -10 -130 -13 -130 -5 0 10 50 220 59 250 5 17 13 53 17 80
11 82 11 82 108 77 51 -3 86 -1 86 5 0 11 -123 64 -130 56 -3 -3 1 -8 8 -10
23 -9 12 -23 -18 -23 -30 0 -31 1 -25 40 4 25 2 40 -4 40 -11 0 -25 -44 -23
-72 0 -10 -3 -18 -8 -18 -12 0 -29 -55 -36 -115 -4 -27 -11 -53 -16 -56 -5 -3
-6 -18 -2 -32 4 -16 2 -27 -4 -27 -11 0 -28 -70 -36 -151 -3 -26 -11 -59 -18
-73 -14 -32 -65 -56 -120 -56 -24 0 -37 -4 -33 -10 3 -5 1 -10 -4 -10 -6 0
-11 7 -11 16 0 9 -5 12 -12 8 -6 -4 -8 -3 -5 3 7 12 -14 63 -26 63 -5 0 -5 5
-2 10 3 6 2 10 -3 10 -12 0 -11 34 2 42 7 5 4 12 -9 22 -13 10 -15 15 -6 16
11 0 11 4 -1 23 -8 12 -22 51 -32 87 -10 36 -22 73 -27 82 -5 10 -9 26 -9 36
0 10 -6 24 -12 30 -10 10 -10 15 2 22 13 8 12 10 -2 10 -11 0 -18 8 -18 20 0
11 -4 20 -8 20 -11 0 -32 91 -25 103 9 14 83 1 104 -19 11 -10 17 -24 14 -33
-3 -8 0 -18 6 -22 6 -3 13 -22 15 -40 5 -38 41 -165 55 -191 5 -10 9 -30 9
-46 0 -42 35 -106 65 -120 24 -11 27 -10 32 8 3 12 14 20 25 20 18 0 19 2 7
16 -9 11 -10 17 -1 23 6 4 14 30 16 57 3 28 10 62 15 76 5 13 12 50 16 81 4
32 12 57 19 57 6 0 5 4 -3 9 -9 6 -11 18 -7 35 4 15 11 24 16 21 5 -3 8 3 8
12 0 10 4 30 10 46 9 21 18 27 42 27 17 0 43 -8 57 -17 25 -16 62 -18 413 -18
l385 0 1 30 c0 17 -1 35 -3 40 -2 6 -164 10 -458 10 -250 0 -455 0 -456 0z
m664 -42 c-45 -2 -122 -2 -170 0 -48 1 -11 3 82 3 94 0 133 -2 88 -3z m-837
-131 c6 -4 15 -18 19 -31 5 -17 10 -20 18 -12 9 9 8 14 -2 20 -24 15 -4 26 46
26 32 0 47 -4 46 -12 -2 -7 -9 -43 -17 -80 -9 -37 -23 -110 -32 -160 -11 -57
-22 -93 -30 -93 -14 0 -24 23 -24 56 0 22 -30 126 -66 229 -8 23 -14 46 -14
53 0 13 38 16 56 4z"/>
<path d="M1150 915 c0 0 -2 -79 -3 -176 l-2 -176 65 -33 c36 -19 73 -40 83
-48 15 -13 17 -13 17 0 0 8 -3 18 -7 22 -4 4 -6 39 -5 79 1 40 -2 88 -7 107
-8 32 -9 30 -10 -27 -1 -34 -5 -64 -10 -67 -5 -3 -7 -15 -4 -26 8 -30 -19 -34
-61 -9 l-37 22 6 121 c4 66 7 127 7 134 1 6 6 12 12 12 6 0 2 7 -8 15 -21 16
-9 25 31 22 45 -4 26 18 -19 23 -27 3 -48 6 -48 5z"/>
<path d="M1466 792 c-3 -6 1 -13 10 -16 23 -9 28 -2 10 13 -8 7 -17 8 -20 3z"/>
<path d="M2156 789 c-2 -8 -9 -34 -16 -59 -6 -25 -19 -76 -29 -115 -10 -38
-21 -87 -25 -107 -6 -35 -9 -38 -41 -38 -19 0 -35 -4 -35 -9 0 -13 53 -21 67
-9 7 5 22 7 35 3 19 -6 21 -5 11 6 -20 21 -15 29 15 24 15 -2 47 -6 73 -9 l45
-5 -4 122 c-6 150 -20 200 -21 71 -1 -49 -7 -102 -13 -117 -15 -30 -44 -36
-51 -9 -4 13 -5 11 -6 -5 -1 -16 -7 -23 -22 -23 -20 0 -21 4 -15 50 4 28 12
63 18 78 6 15 10 39 9 55 -2 15 3 27 9 27 7 0 10 8 7 20 -3 11 -1 20 3 20 9 0
7 26 -3 36 -4 4 -8 1 -11 -7z"/>
<path d="M2497 793 c-15 -4 -17 -10 -11 -31 5 -15 8 -112 9 -217 l0 -190 24 0
23 0 -1 125 c-1 69 -4 140 -8 159 -10 60 17 31 79 -84 32 -61 70 -134 84 -162
24 -50 45 -65 59 -43 9 15 7 422 -3 432 -5 5 -15 6 -24 3 -11 -4 -14 -19 -11
-58 10 -180 10 -217 -4 -217 -7 0 -16 8 -20 18 -14 40 -157 272 -167 271 -6
-1 -19 -3 -29 -6z"/>
<path d="M3252 773 c-93 -44 -143 -135 -136 -245 7 -121 64 -188 158 -188 39
0 52 6 86 36 22 20 40 40 40 45 0 14 -20 11 -36 -6 -37 -37 -129 -3 -166 61
-58 100 -18 254 67 254 18 0 38 -7 45 -15 17 -21 29 -19 56 11 31 32 30 42 -3
55 -48 18 -57 18 -111 -8z"/>
<path d="M2360 786 c0 -1 -1 -99 -3 -219 l-2 -217 38 0 37 0 0 219 0 219 -35
-1 c-19 -1 -35 -1 -35 -1z"/>
<path d="M2942 774 c-49 -25 -108 -98 -121 -149 -25 -100 -5 -200 51 -250 33
-30 45 -35 89 -35 42 0 58 6 90 31 21 17 39 37 39 45 0 18 -14 18 -30 -1 -32
-39 -138 3 -171 67 -25 49 -26 163 -2 198 9 14 24 30 33 37 21 17 65 16 80 -2
18 -22 33 -19 64 13 24 26 25 30 11 42 -25 20 -96 23 -133 4z"/>
<path d="M3436 781 c-2 -3 -4 -102 -5 -218 l0 -213 89 0 c78 0 91 2 100 19 17
33 12 36 -51 36 l-61 0 2 179 c0 98 2 183 3 190 2 11 -71 18 -77 7z"/>
<path d="M3663 773 c-2 -6 -3 -103 -1 -215 l3 -203 80 -3 c66 -2 82 0 92 14
26 35 16 42 -47 37 l-60 -6 0 78 0 78 50 -5 c42 -4 53 -2 60 13 20 36 13 42
-50 37 l-60 -4 0 73 0 73 48 0 c46 0 72 12 72 35 0 15 -181 14 -187 -2z"/>
<path d="M3899 784 c0 -5 0 -103 0 -219 l1 -210 32 0 31 0 -2 75 c-1 45 -8 84
-17 98 -13 20 -13 25 1 44 10 16 15 46 15 100 0 86 7 94 54 57 40 -31 37 -90
-6 -130 -18 -16 -41 -32 -50 -35 -23 -7 -23 -16 2 -32 11 -6 28 -29 38 -49 48
-95 73 -143 77 -143 2 0 16 12 32 26 16 15 23 28 17 32 -6 4 -28 40 -49 80
-22 39 -43 72 -47 72 -17 0 -7 29 12 35 34 11 63 71 57 117 -9 64 -34 82 -122
86 -41 2 -75 0 -76 -4z"/>
<path d="M1493 739 c4 -15 9 -39 13 -55 3 -16 12 -42 19 -59 8 -16 15 -49 17
-71 7 -70 53 -119 100 -106 28 7 21 20 -13 24 -31 3 -32 6 -80 142 -45 129
-70 185 -56 125z"/>
<path d="M4359 643 c-19 -7 -45 -30 -59 -50 -34 -49 -36 -157 -4 -200 34 -46
65 -56 113 -37 21 8 42 23 45 31 9 22 1 26 -22 14 -32 -17 -49 -13 -82 17 -40
36 -50 102 -25 156 14 28 23 36 44 36 15 0 32 -5 39 -12 9 -9 16 -7 32 7 39
35 -20 63 -81 38z"/>
<path d="M4645 648 c-34 -109 -60 -190 -71 -221 -18 -47 -18 -67 0 -67 7 0 17
18 22 43 9 41 10 42 51 45 l42 3 8 -43 c7 -37 12 -43 36 -46 15 -2 27 0 27 3
0 4 -13 46 -29 94 -16 47 -35 112 -42 144 -13 53 -34 75 -44 45z m29 -170 c-3
-4 -17 -8 -31 -8 -24 0 -25 2 -18 38 12 62 27 70 41 21 7 -23 11 -46 8 -51z"/>
<path d="M1146 298 l1 -172 55 -30 c30 -17 62 -37 70 -44 16 -13 37 -13 626
-12 282 0 363 15 106 19 -86 1 -165 4 -177 7 -24 4 -470 6 -502 2 -19 -3 -20
4 -23 84 -1 49 -6 88 -10 88 -4 0 -8 -10 -8 -22 -1 -90 -4 -110 -19 -105 -8 4
-17 2 -20 -3 -3 -5 -21 1 -40 13 -34 22 -35 23 -29 72 4 28 7 94 6 148 l0 97
31 1 c18 1 42 0 55 -1 25 -2 30 15 6 24 -9 3 -41 6 -72 6 l-57 0 1 -172z"/>
<path d="M4800 415 c-17 -21 -4 -67 18 -63 22 4 28 51 9 66 -11 10 -17 9 -27
-3z"/>
<path d="M4482 388 c3 -36 31 -50 42 -22 10 26 -3 54 -25 54 -17 0 -20 -6 -17
-32z"/>
<path d="M1600 350 c0 -6 9 -30 20 -52 11 -23 20 -49 20 -58 0 -9 13 -31 29
-50 26 -32 32 -34 51 -22 11 7 25 10 31 6 5 -3 15 -1 22 4 7 5 32 13 57 17 48
7 103 21 135 35 11 5 27 11 35 14 8 3 -7 3 -34 0 -27 -3 -58 -9 -70 -14 -11
-4 -55 -14 -96 -21 -41 -7 -81 -17 -88 -22 -17 -13 -27 -2 -45 53 -26 76 -47
120 -57 120 -6 0 -10 -5 -10 -10z"/>
<path d="M2060 343 c0 -6 -3 -20 -6 -30 -7 -17 -6 -17 12 -1 14 14 16 21 6 30
-8 8 -12 9 -12 1z"/>
<path d="M2210 222 c0 -5 7 -25 15 -43 l14 -34 1 31 c0 17 -7 37 -15 44 -9 7
-15 8 -15 2z"/>
<path d="M2237 133 c-4 -3 -7 -21 -7 -40 0 -29 -3 -33 -25 -33 -14 0 -25 -4
-25 -8 0 -4 16 -8 35 -8 l35 0 0 48 c0 49 -1 53 -13 41z"/>
</g>
</svg>
